<svg width="260" height="139" viewBox="0 0 260 139" fill="none" xmlns="http://www.w3.org/2000/svg">
<g clip-path="url(#clip0_1_8)">
<g filter="url(#filter0_i_1_8)">
<path d="M112.608 58.3041L125.027 30.7061H130.074L142.533 58.3041H137.171L126.486 33.4264H128.536L117.891 58.3041H112.608ZM118.325 51.9171L119.705 47.8957H134.608L135.988 51.9171H118.325ZM151.882 58.5801C150.121 58.5801 148.426 58.3567 146.796 57.9099C145.193 57.4367 143.918 56.8716 142.972 56.2145L144.864 52.4691C145.81 53.0736 146.941 53.573 148.255 53.9673C149.569 54.3615 150.883 54.5587 152.197 54.5587C153.748 54.5587 154.865 54.3484 155.549 53.9278C156.258 53.5073 156.613 52.9422 156.613 52.2325C156.613 51.6543 156.377 51.2206 155.903 50.9315C155.43 50.6161 154.813 50.3795 154.05 50.2218C153.288 50.0641 152.434 49.9196 151.488 49.7881C150.568 49.6567 149.635 49.4859 148.688 49.2756C147.769 49.039 146.927 48.7105 146.165 48.29C145.403 47.8431 144.785 47.2517 144.312 46.5158C143.839 45.7799 143.603 44.8073 143.603 43.5983C143.603 42.2578 143.984 41.1013 144.746 40.1288C145.508 39.13 146.573 38.3678 147.939 37.8421C149.332 37.2902 150.975 37.0142 152.868 37.0142C154.287 37.0142 155.719 37.1719 157.165 37.4873C158.611 37.8027 159.807 38.2495 160.753 38.8278L158.86 42.5732C157.862 41.9687 156.85 41.5613 155.825 41.351C154.826 41.1145 153.827 40.9962 152.828 40.9962C151.33 40.9962 150.213 41.2196 149.477 41.6664C148.767 42.1133 148.413 42.6784 148.413 43.3617C148.413 43.9925 148.649 44.4657 149.122 44.7811C149.595 45.0965 150.213 45.3462 150.975 45.5302C151.737 45.7141 152.579 45.8718 153.498 46.0033C154.445 46.1084 155.378 46.2792 156.298 46.5158C157.218 46.7524 158.059 47.0809 158.821 47.5014C159.609 47.8957 160.24 48.4608 160.713 49.1968C161.186 49.9327 161.423 50.8921 161.423 52.0748C161.423 53.389 161.029 54.5324 160.24 55.5049C159.478 56.4774 158.387 57.2396 156.968 57.7916C155.549 58.3173 153.853 58.5801 151.882 58.5801ZM173.592 58.5801C171.279 58.5801 169.491 57.9887 168.23 56.8059C166.968 55.5969 166.337 53.8227 166.337 51.4834V32.5985H171.266V51.3652C171.266 52.364 171.515 53.1393 172.015 53.6913C172.54 54.2433 173.263 54.5192 174.183 54.5192C175.287 54.5192 176.207 54.2301 176.943 53.6519L178.323 57.1608C177.745 57.6339 177.035 57.9887 176.194 58.2253C175.353 58.4618 174.485 58.5801 173.592 58.5801ZM162.868 41.351V37.4084H176.903V41.351H162.868ZM182.377 58.3041V37.2507H187.069V43.0463L186.517 41.351C187.147 39.9317 188.133 38.8541 189.474 38.1181C190.84 37.3822 192.536 37.0142 194.559 37.0142V41.7059C194.349 41.6533 194.152 41.627 193.968 41.627C193.784 41.6007 193.6 41.5876 193.416 41.5876C191.55 41.5876 190.065 42.1395 188.961 43.2435C187.857 44.3211 187.305 45.9376 187.305 48.0928V58.3041H182.377ZM208.01 58.5801C205.855 58.5801 203.936 58.1201 202.254 57.2002C200.571 56.254 199.244 54.9661 198.272 53.3365C197.299 51.7069 196.813 49.8538 196.813 47.7774C196.813 45.6747 197.299 43.8217 198.272 42.2184C199.244 40.5888 200.571 39.314 202.254 38.3941C203.936 37.4742 205.855 37.0142 208.01 37.0142C210.191 37.0142 212.123 37.4742 213.805 38.3941C215.514 39.314 216.841 40.5756 217.787 42.179C218.76 43.7823 219.246 45.6484 219.246 47.7774C219.246 49.8538 218.76 51.7069 217.787 53.3365C216.841 54.9661 215.514 56.254 213.805 57.2002C212.123 58.1201 210.191 58.5801 208.01 58.5801ZM208.01 54.3615C209.219 54.3615 210.297 54.0987 211.243 53.573C212.189 53.0473 212.925 52.2851 213.451 51.2863C214.003 50.2875 214.279 49.1179 214.279 47.7774C214.279 46.4107 214.003 45.241 213.451 44.2685C212.925 43.2697 212.189 42.5075 211.243 41.9818C210.297 41.4562 209.232 41.1933 208.049 41.1933C206.84 41.1933 205.763 41.4562 204.816 41.9818C203.896 42.5075 203.16 43.2697 202.608 44.2685C202.057 45.241 201.781 46.4107 201.781 47.7774C201.781 49.1179 202.057 50.2875 202.608 51.2863C203.16 52.2851 203.896 53.0473 204.816 53.573C205.763 54.0987 206.827 54.3615 208.01 54.3615ZM138.303 106.304V78.7061H143.429V101.967H157.859V106.304H138.303ZM170.702 106.58C168.546 106.58 166.628 106.12 164.945 105.2C163.263 104.254 161.936 102.966 160.963 101.336C159.991 99.7069 159.505 97.8538 159.505 95.7774C159.505 93.6747 159.991 91.8217 160.963 90.2184C161.936 88.5888 163.263 87.314 164.945 86.3941C166.628 85.4742 168.546 85.0142 170.702 85.0142C172.883 85.0142 174.815 85.4742 176.497 86.3941C178.206 87.314 179.533 88.5756 180.479 90.179C181.452 91.7823 181.938 93.6484 181.938 95.7774C181.938 97.8538 181.452 99.7069 180.479 101.336C179.533 102.966 178.206 104.254 176.497 105.2C174.815 106.12 172.883 106.58 170.702 106.58ZM170.702 102.362C171.911 102.362 172.988 102.099 173.935 101.573C174.881 101.047 175.617 100.285 176.142 99.2863C176.694 98.2875 176.97 97.1179 176.97 95.7774C176.97 94.4107 176.694 93.241 176.142 92.2685C175.617 91.2697 174.881 90.5075 173.935 89.9818C172.988 89.4562 171.924 89.1933 170.741 89.1933C169.532 89.1933 168.454 89.4562 167.508 89.9818C166.588 90.5075 165.852 91.2697 165.3 92.2685C164.748 93.241 164.472 94.4107 164.472 95.7774C164.472 97.1179 164.748 98.2875 165.3 99.2863C165.852 100.285 166.588 101.047 167.508 101.573C168.454 102.099 169.519 102.362 170.702 102.362ZM196.192 114.229C194.247 114.229 192.341 113.966 190.475 113.44C188.635 112.941 187.124 112.205 185.941 111.232L188.149 107.526C189.069 108.289 190.225 108.893 191.618 109.34C193.038 109.813 194.47 110.05 195.916 110.05C198.229 110.05 199.924 109.511 201.002 108.433C202.079 107.382 202.618 105.792 202.618 103.663V99.9171L203.012 95.1466L202.855 90.3761V85.2507H207.546V103.111C207.546 106.922 206.574 109.721 204.629 111.508C202.684 113.322 199.871 114.229 196.192 114.229ZM195.561 105.358C193.563 105.358 191.75 104.937 190.12 104.096C188.517 103.229 187.242 102.033 186.296 100.509C185.376 98.9841 184.916 97.1968 184.916 95.1466C184.916 93.1228 185.376 91.3486 186.296 89.8241C187.242 88.2997 188.517 87.1169 190.12 86.2758C191.75 85.4347 193.563 85.0142 195.561 85.0142C197.348 85.0142 198.951 85.369 200.371 86.0787C201.79 86.7883 202.92 87.8923 203.761 89.3904C204.629 90.8886 205.062 92.8073 205.062 95.1466C205.062 97.4859 204.629 99.4177 203.761 100.942C202.92 102.44 201.79 103.557 200.371 104.293C198.951 105.003 197.348 105.358 195.561 105.358ZM196.31 101.179C197.545 101.179 198.649 100.929 199.622 100.43C200.594 99.904 201.343 99.1943 201.869 98.3007C202.421 97.3807 202.697 96.3294 202.697 95.1466C202.697 93.9638 202.421 92.9256 201.869 92.032C201.343 91.112 200.594 90.4155 199.622 89.9424C198.649 89.443 197.545 89.1933 196.31 89.1933C195.075 89.1933 193.958 89.443 192.959 89.9424C191.986 90.4155 191.224 91.112 190.672 92.032C190.146 92.9256 189.884 93.9638 189.884 95.1466C189.884 96.3294 190.146 97.3807 190.672 98.3007C191.224 99.1943 191.986 99.904 192.959 100.43C193.958 100.929 195.075 101.179 196.31 101.179ZM214.025 106.304V85.2507H218.954V106.304H214.025ZM216.509 81.7813C215.589 81.7813 214.827 81.4921 214.222 80.9139C213.644 80.3357 213.355 79.6391 213.355 78.8243C213.355 77.9833 213.644 77.2867 214.222 76.7348C214.827 76.1565 215.589 75.8674 216.509 75.8674C217.429 75.8674 218.178 76.1434 218.756 76.6953C219.361 77.221 219.663 77.8913 219.663 78.7061C219.663 79.5734 219.374 80.3094 218.796 80.9139C218.218 81.4921 217.455 81.7813 216.509 81.7813Z" fill="#F3F3F3"/>
</g>
<path d="M62.9308 106.316H53.399L80.9677 31.2354H90.3528L117.922 106.316H108.39L85.9536 43.1134H85.367L62.9308 106.316ZM66.4502 76.9877H104.87V85.053H66.4502V76.9877Z" fill="#2A2A2A" fill-opacity="0.750996"/>
<path d="M62.9308 106.316V107.361C63.3732 107.361 63.7677 107.083 63.9157 106.666L62.9308 106.316ZM53.399 106.316L52.4179 105.956C52.3002 106.276 52.3466 106.634 52.5421 106.914C52.7375 107.194 53.0575 107.361 53.399 107.361V106.316ZM80.9677 31.2354V30.1903C80.5294 30.1903 80.1377 30.4637 79.9866 30.8751L80.9677 31.2354ZM90.3528 31.2354L91.3339 30.8751C91.1828 30.4637 90.7911 30.1903 90.3528 30.1903V31.2354ZM117.922 106.316V107.361C118.263 107.361 118.583 107.194 118.779 106.914C118.974 106.634 119.02 106.276 118.903 105.956L117.922 106.316ZM108.39 106.316L107.405 106.666C107.553 107.083 107.947 107.361 108.39 107.361V106.316ZM85.9536 43.1134L86.9385 42.7638C86.7905 42.3468 86.396 42.0683 85.9536 42.0683V43.1134ZM85.367 43.1134V42.0683C84.9246 42.0683 84.5301 42.3468 84.3821 42.7638L85.367 43.1134ZM66.4502 76.9877V75.9426C65.873 75.9426 65.405 76.4105 65.405 76.9877H66.4502ZM104.87 76.9877H105.916C105.916 76.4105 105.448 75.9426 104.87 75.9426V76.9877ZM104.87 85.053V86.0982C105.448 86.0982 105.916 85.6302 105.916 85.053H104.87ZM66.4502 85.053H65.405C65.405 85.6302 65.873 86.0982 66.4502 86.0982V85.053ZM62.9308 105.271H53.399V107.361H62.9308V105.271ZM54.3801 106.676L81.9488 31.5956L79.9866 30.8751L52.4179 105.956L54.3801 106.676ZM80.9677 32.2805H90.3528V30.1903H80.9677V32.2805ZM89.3717 31.5956L116.94 106.676L118.903 105.956L91.3339 30.8751L89.3717 31.5956ZM117.922 105.271H108.39V107.361H117.922V105.271ZM109.375 105.966L86.9385 42.7638L84.9686 43.463L107.405 106.666L109.375 105.966ZM85.9536 42.0683H85.367V44.1585H85.9536V42.0683ZM84.3821 42.7638L61.9458 105.966L63.9157 106.666L86.3519 43.463L84.3821 42.7638ZM66.4502 78.0328H104.87V75.9426H66.4502V78.0328ZM103.825 76.9877V85.053H105.916V76.9877H103.825ZM104.87 84.0079H66.4502V86.0982H104.87V84.0079ZM67.4953 85.053V76.9877H65.405V85.053H67.4953Z" fill="#393939"/>
<path d="M81.4316 106.447V31.3658H90.5234V98.3813H125.424V106.447H81.4316Z" fill="#2A2A2A" fill-opacity="0.750996"/>
<path d="M81.4316 106.447H80.3864C80.3864 107.024 80.8543 107.492 81.4316 107.492V106.447ZM81.4316 31.3658V30.3207C80.8543 30.3207 80.3864 30.7886 80.3864 31.3658H81.4316ZM90.5234 31.3658H91.5685C91.5685 30.7886 91.1006 30.3207 90.5234 30.3207V31.3658ZM90.5234 98.3813H89.4782C89.4782 98.9585 89.9461 99.4264 90.5234 99.4264V98.3813ZM125.424 98.3813H126.469C126.469 97.804 126.001 97.3361 125.424 97.3361V98.3813ZM125.424 106.447V107.492C126.001 107.492 126.469 107.024 126.469 106.447H125.424ZM82.4767 106.447V31.3658H80.3864V106.447H82.4767ZM81.4316 32.411H90.5234V30.3207H81.4316V32.411ZM89.4782 31.3658V98.3813H91.5685V31.3658H89.4782ZM90.5234 99.4264H125.424V97.3361H90.5234V99.4264ZM124.379 98.3813V106.447H126.469V98.3813H124.379ZM125.424 105.401H81.4316V107.492H125.424V105.401Z" fill="#393939"/>
</g>
<defs>
<filter id="filter0_i_1_8" x="112.608" y="30.7061" width="107.055" height="85.5445" filterUnits="userSpaceOnUse" color-interpolation-filters="sRGB">
<feFlood flood-opacity="0" result="BackgroundImageFix"/>
<feBlend mode="normal" in="SourceGraphic" in2="BackgroundImageFix" result="shape"/>
<feColorMatrix in="SourceAlpha" type="matrix" values="0 0 0 0 0 0 0 0 0 0 0 0 0 0 0 0 0 0 127 0" result="hardAlpha"/>
<feOffset dy="2.02184"/>
<feGaussianBlur stdDeviation="1.01092"/>
<feComposite in2="hardAlpha" operator="arithmetic" k2="-1" k3="1"/>
<feColorMatrix type="matrix" values="0 0 0 0 0 0 0 0 0 0 0 0 0 0 0 0 0 0 0.25 0"/>
<feBlend mode="normal" in2="shape" result="effect1_innerShadow_1_8"/>
</filter>
<clipPath id="clip0_1_8">
<rect width="260" height="139" fill="white"/>
</clipPath>
</defs>
</svg>
